<svg xmlns="http://www.w3.org/2000/svg" version="1.1" xmlns:xlink="http://www.w3.org/1999/xlink" viewBox="0 0 200 200"><rect width="200" height="200" fill="url('#gradient')"></rect><defs><linearGradient id="gradient" gradientTransform="rotate(0 0.5 0.5)"><stop offset="0%" stop-color="#e8e4da"></stop><stop offset="100%" stop-color="#e6e6e6"></stop></linearGradient></defs><g><g fill="#ff4e4e" transform="matrix(5.067913115204839,0,0,5.067913115204839,9.410072138816204,132.92011671548758)" stroke="#37af61" stroke-width="0.2"><path d="M1.46-13.19L4.76-13.19L4.76-10.57L6.49-10.57L6.49-8.28L4.76-8.28L4.76-3.45Q4.76-2.85 4.97-2.62Q5.19-2.38 5.82-2.38L5.82-2.38Q6.31-2.38 6.64-2.44L6.64-2.44L6.64-0.09Q5.75 0.20 4.79 0.20L4.79 0.20Q3.09 0.20 2.28-0.61Q1.46-1.41 1.46-3.04L1.46-3.04L1.46-8.28L0.12-8.28L0.12-10.57L1.46-10.57L1.46-13.19ZM14.24-10.64L14.18-7.59L13.10-7.67Q11.54-7.67 11.10-6.69L11.10-6.69L11.10 0L7.81 0L7.81-10.57L10.90-10.57L11.01-9.21Q11.84-10.76 13.32-10.76L13.32-10.76Q13.85-10.76 14.24-10.64L14.24-10.64ZM20.29 0.20L20.29 0.20Q17.86 0.20 16.36-1.25Q14.85-2.71 14.85-5.03L14.85-5.03L14.85-5.30Q14.85-6.92 15.45-8.16Q16.05-9.40 17.21-10.08Q18.36-10.76 19.94-10.76L19.94-10.76Q22.17-10.76 23.46-9.38Q24.75-8.00 24.75-5.53L24.75-5.53L24.75-4.25L18.20-4.25Q18.38-3.36 18.97-2.85Q19.57-2.34 20.52-2.34L20.52-2.34Q22.08-2.34 22.96-3.44L22.96-3.44L24.46-1.66Q23.85-0.81 22.72-0.31Q21.59 0.20 20.29 0.20ZM19.92-8.22L19.92-8.22Q18.48-8.22 18.20-6.31L18.20-6.31L21.52-6.31L21.52-6.56Q21.54-7.35 21.12-7.79Q20.70-8.22 19.92-8.22ZM31.18 0.20L31.18 0.20Q28.75 0.20 27.25-1.25Q25.74-2.71 25.74-5.03L25.74-5.03L25.74-5.30Q25.74-6.92 26.34-8.16Q26.94-9.40 28.10-10.08Q29.25-10.76 30.83-10.76L30.83-10.76Q33.06-10.76 34.35-9.38Q35.63-8.00 35.63-5.53L35.63-5.53L35.63-4.25L29.09-4.25Q29.27-3.36 29.86-2.85Q30.46-2.34 31.41-2.34L31.41-2.34Q32.97-2.34 33.85-3.44L33.85-3.44L35.35-1.66Q34.74-0.81 33.61-0.31Q32.48 0.20 31.18 0.20ZM30.81-8.22L30.81-8.22Q29.37-8.22 29.09-6.31L29.09-6.31L32.41-6.31L32.41-6.56Q32.43-7.35 32.01-7.79Q31.59-8.22 30.81-8.22Z"></path></g></g></svg>